<svg width="48" height="48" viewBox="0 0 48 48" fill="none" xmlns="http://www.w3.org/2000/svg">
<rect width="48" height="48" fill="#F62559"/>
<path fill-rule="evenodd" clip-rule="evenodd" d="M23.3814 10.6111C25.859 9.61642 26.9187 13.5433 24.7461 14.2879C23.4021 14.7486 22.4006 14.0251 22.1068 13.0955C21.6718 11.7197 22.4233 10.9958 23.3814 10.6111ZM19.6363 8.17171C18.1259 8.78338 18.4886 10.05 18.4869 11.9253C18.4857 13.2806 18.2145 15.7351 19.012 16.4506C19.7034 17.0707 27.2311 17.1511 28.4615 16.7113C29.8015 16.2325 29.4781 14.243 29.4779 12.8023C29.4777 11.3607 29.8036 9.01613 28.8106 8.32835C28.1612 7.87852 20.4706 7.83392 19.6363 8.17171Z" fill="white"/>
<path fill-rule="evenodd" clip-rule="evenodd" d="M16.4149 20.4145C16.4153 21.2981 17.132 22.0141 18.0157 22.0134L29.9121 22.0044C30.818 22.0038 31.5498 21.2651 31.5422 20.3593C31.5345 19.4599 30.8004 18.7364 29.901 18.7418L18.0047 18.8143C17.1248 18.8196 16.4145 19.5346 16.4149 20.4145Z" fill="white"/>
<path fill-rule="evenodd" clip-rule="evenodd" d="M19.8731 18.3647C21.2131 18.3647 27.6923 18.6385 29.2433 18.1627C29.3953 18.116 29.4799 17.9704 29.4897 17.8117C29.5066 17.5379 29.3031 17.3025 29.0292 17.2879C26.6053 17.1585 19.4226 16.9166 18.8547 17.2754C17.8189 17.9298 18.9977 18.3647 19.8731 18.3647Z" fill="white"/>
<path fill-rule="evenodd" clip-rule="evenodd" d="M11.6844 35.7219C11.625 39.8592 14.5165 39.7305 18.2024 39.5664C18.9597 39.5327 19.7506 39.4975 20.5563 39.4975H27.6335C28.3573 39.4975 29.0751 39.5253 29.7697 39.5522C33.4246 39.6938 36.4396 39.8106 36.3197 35.7219H36.3232V26.7891H36.2905C36.3985 22.368 33.6586 22.4887 29.8552 22.6563C29.0811 22.6904 28.2631 22.7265 27.416 22.7266L19.5367 22.7253C18.6855 22.7253 17.891 22.6894 17.1595 22.6563C13.6149 22.496 11.5503 22.4027 11.6827 26.7891H11.6766V35.7219H11.6844ZM21.9007 25.6959C18.8559 25.6503 15.8106 25.6047 14.7441 25.8796L14.5472 26.9421V35.5883L14.6565 36.3622C15.8915 36.6502 31.8608 36.6855 33.2566 36.3689L33.4527 35.2637V26.798C33.4018 26.4164 33.3371 26.1536 33.1779 25.9751C32.8218 25.5758 31.9924 25.5985 29.7846 25.6591C28.6642 25.6899 27.1886 25.7303 25.2398 25.7303C24.1976 25.7303 23.0492 25.7131 21.9007 25.6959Z" fill="white"/>
</svg>
